<svg width="185" height="66" viewBox="0 0 185 66" fill="none" xmlns="http://www.w3.org/2000/svg">
<path d="M28.7041 13.152C31.1041 13.152 32.6401 13.344 32.6401 13.344V27.264C32.6401 27.264 30.9121 26.88 28.9921 26.88C21.4081 26.88 15.2641 32.64 15.2641 44.352V64.032H5.38826e-05V14.592H13.3441L14.6881 23.52C17.1841 17.088 22.3681 13.152 28.7041 13.152ZM61.1498 25.248C52.8938 25.248 49.0538 32.064 49.0538 39.264C49.0538 46.464 52.8938 53.28 61.1498 53.28C69.5018 53.28 73.2458 46.368 73.2458 39.264C73.2458 32.064 69.4058 25.248 61.1498 25.248ZM61.1498 13.152C76.7018 13.152 87.9338 23.904 87.9338 39.264C87.9338 54.528 76.7018 65.472 61.1498 65.472C45.6938 65.472 34.4618 54.624 34.4618 39.264C34.4618 23.904 45.6938 13.152 61.1498 13.152ZM120.025 25.248C111.769 25.248 107.929 32.064 107.929 39.264C107.929 46.464 111.769 53.28 120.025 53.28C128.377 53.28 132.121 46.368 132.121 39.264C132.121 32.064 128.281 25.248 120.025 25.248ZM120.025 13.152C135.577 13.152 146.809 23.904 146.809 39.264C146.809 54.528 135.577 65.472 120.025 65.472C104.569 65.472 93.3368 54.624 93.3368 39.264C93.3368 23.904 104.569 13.152 120.025 13.152ZM158.024 -7.62939e-06H173.288V14.592H184.04V26.496H173.288V45.888C173.288 50.784 175.688 52.608 180.68 52.608C182.12 52.608 183.464 52.416 184.04 52.224V64.704C181.64 65.088 178.664 65.472 175.496 65.472C163.304 65.472 158.024 59.136 158.024 47.04V26.496H149.768V14.592H152.552C156.488 14.592 158.024 12.48 158.024 9.21599V-7.62939e-06Z" fill="#005D11"/>
</svg>
